# xmcd CD database file
#
# Track frame offsets:
#	150
#	11357
#	24579
#	35349
#	47611
#	61507
#	74124
#	84314
#	96619
#	108923
#	124283
#	137694
#
# Disc length: 1989 seconds
#
# Revision: 2
# Processed by: cddbd v1.5PL3 Copyright (c) Steve Scherf et al.
# Submitted via: CDex 1.50
#
DISCID=9c07c30c
DTITLE=Marvin Gaye and Tammi Terrell - United
DYEAR=1967
DGENRE=Soul
TTITLE0=Ain´t no mountain high enough
TTITLE1=You got what it takes
TTITLE2=If i could build my world around you
TTITLE3=Somethin´ stupid
TTITLE4=Your precious love
TTITLE5=Hold me oh my darling
TTITLE6=Two can have a party
TTITLE7=Little ole boy, little ole girl
TTITLE8=If this world were mine
TTITLE9=Sad wedding
TTITLE10=Give a little love
TTITLE11=Oh how i´d miss you
EXTD=YEAR: 1967
EXTT0=
EXTT1=
EXTT2=
EXTT3=
EXTT4=
EXTT5=
EXTT6=
EXTT7=
EXTT8=
EXTT9=
EXTT10=
EXTT11=
PLAYORDER=
